# xmcd CD database file
#
# Track frame offsets:
#	150
#	27201
#	54262
#	81313
#	100416
#	116310
#	130534
#	157824
#	174858
#	197115
#	218241
#	241013
#
# Disc length: 3375 seconds
#
# Revision: 0
# Processed by: cddbd v1.5.1PL2 Copyright (c) Steve Scherf et al.
# Submitted via: CDex 1.51
#
DISCID=8b0d2d0c
DTITLE=Carmen Mc Rae - The Best of Carmen Mc Rae
DYEAR=1900
DGENRE=Jazz
TTITLE0=Track01
TTITLE1=Track02 - Track02
TTITLE2=Track03 - Track03
TTITLE3=Track04 - Track04
TTITLE4=Track05 - Track05
TTITLE5=Track06 - Track06
TTITLE6=Track07 - Track07
TTITLE7=Track08 - Track08
TTITLE8=Track09 - Track09
TTITLE9=Track10 - Track10
TTITLE10=Track11 - Track11
TTITLE11=Track12 - Track12
EXTD=
EXTT0=
EXTT1=
EXTT2=
EXTT3=
EXTT4=
EXTT5=
EXTT6=
EXTT7=
EXTT8=
EXTT9=
EXTT10=
EXTT11=
PLAYORDER=
